<svg width="1440" height="1100" viewBox="0 0 1440 1100" fill="none" xmlns="http://www.w3.org/2000/svg">
<g opacity="0.3">
<line x1="1428.51" y1="201.003" x2="-7.96809e-07" y2="201.001" stroke="url(#paint0_linear_445_34)" stroke-width="2"/>
<line x1="1440" y1="51.0015" x2="11.4946" y2="51" stroke="url(#paint1_linear_445_34)" stroke-width="2"/>
<line x1="1430.06" y1="351.004" x2="1.5498" y2="351.003" stroke="url(#paint2_linear_445_34)" stroke-width="2"/>
<line x1="1432.04" y1="501.006" x2="3.53882" y2="501.004" stroke="url(#paint3_linear_445_34)" stroke-width="2"/>
<line x1="1434.03" y1="651.007" x2="5.52783" y2="651.006" stroke="url(#paint4_linear_445_34)" stroke-width="2"/>
<line x1="1436.02" y1="801.009" x2="7.5166" y2="801.007" stroke="url(#paint5_linear_445_34)" stroke-width="2"/>
<line x1="1438.01" y1="951.01" x2="9.50586" y2="951.009" stroke="url(#paint6_linear_445_34)" stroke-width="2"/>
<line y1="-1" x2="1000" y2="-1" transform="matrix(0.00156974 0.999999 -0.999999 0.00172899 116.354 0)" stroke="url(#paint7_linear_445_34)" stroke-width="2"/>
<line y1="-1" x2="1000" y2="-1" transform="matrix(0.00156107 0.999999 -0.999999 0.0017386 267.086 0)" stroke="url(#paint8_linear_445_34)" stroke-width="2"/>
<line y1="-1" x2="1000" y2="-1" transform="matrix(0.00156107 0.999999 -0.999999 0.0017386 417.818 0)" stroke="url(#paint9_linear_445_34)" stroke-width="2"/>
<line y1="-1" x2="1000" y2="-1" transform="matrix(0.00156107 0.999999 -0.999999 0.0017386 568.551 0)" stroke="url(#paint10_linear_445_34)" stroke-width="2"/>
<line y1="-1" x2="1000" y2="-1" transform="matrix(0.00156107 0.999999 -0.999999 0.0017386 719.283 0)" stroke="url(#paint11_linear_445_34)" stroke-width="2"/>
<line y1="-1" x2="1000" y2="-1" transform="matrix(0.00156107 0.999999 -0.999999 0.0017386 870.015 0)" stroke="url(#paint12_linear_445_34)" stroke-width="2"/>
<line y1="-1" x2="1000" y2="-1" transform="matrix(0.00156107 0.999999 -0.999999 0.0017386 1020.75 0)" stroke="url(#paint13_linear_445_34)" stroke-width="2"/>
<line y1="-1" x2="1000" y2="-1" transform="matrix(0.00156107 0.999999 -0.999999 0.0017386 1171.48 0)" stroke="url(#paint14_linear_445_34)" stroke-width="2"/>
<line y1="-1" x2="1000" y2="-1" transform="matrix(0.00156107 0.999999 -0.999999 0.0017386 1322.21 0)" stroke="url(#paint15_linear_445_34)" stroke-width="2"/>
<g filter="url(#filter0_f_445_34)">
<rect width="1440" height="1000" fill="url(#paint16_radial_445_34)"/>
</g>
</g>
<defs>
<filter id="filter0_f_445_34" x="-100" y="-100" width="1640" height="1200" filterUnits="userSpaceOnUse" color-interpolation-filters="sRGB">
<feFlood flood-opacity="0" result="BackgroundImageFix"/>
<feBlend mode="normal" in="SourceGraphic" in2="BackgroundImageFix" result="shape"/>
<feGaussianBlur stdDeviation="50" result="effect1_foregroundBlur_445_34"/>
</filter>
<linearGradient id="paint0_linear_445_34" x1="1428.51" y1="200.003" x2="-0.00163131" y2="199.682" gradientUnits="userSpaceOnUse">
<stop stop-color="#6B6B6B"/>
<stop offset="0.455037" stop-color="#FFC700"/>
<stop offset="1" stop-color="#6B6B6B"/>
</linearGradient>
<linearGradient id="paint1_linear_445_34" x1="1440" y1="50.0015" x2="11.493" y2="49.6809" gradientUnits="userSpaceOnUse">
<stop stop-color="#6B6B6B"/>
<stop offset="0.455037" stop-color="#FFC700"/>
<stop offset="1" stop-color="#6B6B6B"/>
</linearGradient>
<linearGradient id="paint2_linear_445_34" x1="1430.06" y1="350.004" x2="1.54817" y2="349.684" gradientUnits="userSpaceOnUse">
<stop stop-color="#6B6B6B"/>
<stop offset="0.455037" stop-color="#FFC700"/>
<stop offset="1" stop-color="#6B6B6B"/>
</linearGradient>
<linearGradient id="paint3_linear_445_34" x1="1432.04" y1="500.006" x2="3.53719" y2="499.685" gradientUnits="userSpaceOnUse">
<stop stop-color="#6B6B6B"/>
<stop offset="0.455037" stop-color="#FFC700"/>
<stop offset="1" stop-color="#6B6B6B"/>
</linearGradient>
<linearGradient id="paint4_linear_445_34" x1="1434.03" y1="650.007" x2="5.5262" y2="649.687" gradientUnits="userSpaceOnUse">
<stop stop-color="#6B6B6B"/>
<stop offset="0.455037" stop-color="#FFC700"/>
<stop offset="1" stop-color="#6B6B6B"/>
</linearGradient>
<linearGradient id="paint5_linear_445_34" x1="1436.02" y1="800.009" x2="7.51497" y2="799.688" gradientUnits="userSpaceOnUse">
<stop stop-color="#6B6B6B"/>
<stop offset="0.455037" stop-color="#FFC700"/>
<stop offset="1" stop-color="#6B6B6B"/>
</linearGradient>
<linearGradient id="paint6_linear_445_34" x1="1438.01" y1="950.01" x2="9.50423" y2="949.69" gradientUnits="userSpaceOnUse">
<stop stop-color="#6B6B6B"/>
<stop offset="0.455037" stop-color="#FFC700"/>
<stop offset="1" stop-color="#6B6B6B"/>
</linearGradient>
<linearGradient id="paint7_linear_445_34" x1="0" y1="0" x2="1000" y2="0.156523" gradientUnits="userSpaceOnUse">
<stop stop-color="#6B6B6B"/>
<stop offset="0.455037" stop-color="#F8D856"/>
<stop offset="1" stop-color="#6B6B6B"/>
</linearGradient>
<linearGradient id="paint8_linear_445_34" x1="0" y1="0" x2="1000" y2="0.156523" gradientUnits="userSpaceOnUse">
<stop stop-color="#6B6B6B"/>
<stop offset="0.455037" stop-color="#F8D856"/>
<stop offset="1" stop-color="#6B6B6B"/>
</linearGradient>
<linearGradient id="paint9_linear_445_34" x1="0" y1="0" x2="1000" y2="0.156523" gradientUnits="userSpaceOnUse">
<stop stop-color="#6B6B6B"/>
<stop offset="0.455037" stop-color="#F8D856"/>
<stop offset="1" stop-color="#6B6B6B"/>
</linearGradient>
<linearGradient id="paint10_linear_445_34" x1="0" y1="0" x2="1000" y2="0.156523" gradientUnits="userSpaceOnUse">
<stop stop-color="#6B6B6B"/>
<stop offset="0.455037" stop-color="#F8D856"/>
<stop offset="1" stop-color="#6B6B6B"/>
</linearGradient>
<linearGradient id="paint11_linear_445_34" x1="0" y1="0" x2="1000" y2="0.156523" gradientUnits="userSpaceOnUse">
<stop stop-color="#6B6B6B"/>
<stop offset="0.455037" stop-color="#F8D856"/>
<stop offset="1" stop-color="#6B6B6B"/>
</linearGradient>
<linearGradient id="paint12_linear_445_34" x1="0" y1="0" x2="1000" y2="0.156523" gradientUnits="userSpaceOnUse">
<stop stop-color="#6B6B6B"/>
<stop offset="0.455037" stop-color="#F8D856"/>
<stop offset="1" stop-color="#6B6B6B"/>
</linearGradient>
<linearGradient id="paint13_linear_445_34" x1="0" y1="0" x2="1000" y2="0.156523" gradientUnits="userSpaceOnUse">
<stop stop-color="#6B6B6B"/>
<stop offset="0.455037" stop-color="#F8D856"/>
<stop offset="1" stop-color="#6B6B6B"/>
</linearGradient>
<linearGradient id="paint14_linear_445_34" x1="0" y1="0" x2="1000" y2="0.156523" gradientUnits="userSpaceOnUse">
<stop stop-color="#6B6B6B"/>
<stop offset="0.455037" stop-color="#F8D856"/>
<stop offset="1" stop-color="#6B6B6B"/>
</linearGradient>
<linearGradient id="paint15_linear_445_34" x1="0" y1="0" x2="1000" y2="0.156523" gradientUnits="userSpaceOnUse">
<stop stop-color="#6B6B6B"/>
<stop offset="0.455037" stop-color="#F8D856"/>
<stop offset="1" stop-color="#6B6B6B"/>
</linearGradient>
<radialGradient id="paint16_radial_445_34" cx="0" cy="0" r="1" gradientUnits="userSpaceOnUse" gradientTransform="translate(720 500) rotate(90) scale(500 720)">
<stop offset="0.899305" stop-color="#572C53" stop-opacity="0"/>
<stop offset="1" stop-color="#1F031C"/>
</radialGradient>
</defs>
</svg>
