<svg width="78" height="80" viewBox="0 0 78 80" fill="none" xmlns="http://www.w3.org/2000/svg">
<g clip-path="url(#clip0_466_75)">
<path d="M77.9588 40.7484C77.9588 37.4708 77.6934 35.0791 77.1192 32.5988H39.7769V47.392H61.6959C61.2542 51.0684 58.8678 56.6049 53.5647 60.3252L53.4903 60.8204L65.2973 69.9878L66.1153 70.0696C73.6278 63.1157 77.9588 52.8842 77.9588 40.7484Z" fill="#E4E0E5"/>
<path d="M39.7771 79.7252C50.5156 79.7252 59.5307 76.1817 66.1155 70.0696L53.5649 60.3252C50.2064 62.6727 45.6987 64.3115 39.7771 64.3115C29.2595 64.3115 20.3327 57.3579 17.1506 47.7466L16.6842 47.7863L4.40714 57.309L4.24658 57.7564C10.7869 70.778 24.2214 79.7252 39.7771 79.7252Z" fill="#E4E0E5"/>
<path d="M17.1503 47.7466C16.3106 45.2663 15.8247 42.6086 15.8247 39.8626C15.8247 37.1163 16.3106 34.4589 17.1061 31.9786L17.0838 31.4504L4.65296 21.7747L4.24624 21.9686C1.55065 27.3722 0.00390625 33.4403 0.00390625 39.8626C0.00390625 46.2849 1.55065 52.3527 4.24624 57.7563L17.1503 47.7466Z" fill="#E4E0E5"/>
<path d="M39.7771 15.4134C47.2454 15.4134 52.2832 18.6467 55.1558 21.3487L66.3806 10.3643C59.4868 3.94198 50.5156 0 39.7771 0C24.2214 0 10.7869 8.94687 4.24658 21.9685L17.1064 31.9786C20.3327 22.3673 29.2595 15.4134 39.7771 15.4134Z" fill="#E4E0E5"/>
</g>
<defs>
<clipPath id="clip0_466_75">
<rect width="78" height="80" fill="white"/>
</clipPath>
</defs>
</svg>
