<svg width="92" height="58" viewBox="0 0 92 58" fill="none" xmlns="http://www.w3.org/2000/svg">
<path d="M28.1049 29L0 47.1919V10.8081L28.1049 29ZM63.8951 29L92 47.1919V10.8081L63.8951 29ZM59.7888 31.6658L47.2229 39.7969C46.8527 40.0312 46.4263 40.1538 46 40.1538C45.5737 40.1538 45.1473 40.0312 44.7771 39.7969L32.2112 31.6658L1.86244 51.3077L0.100976 52.4454C0.650732 55.5908 3.41073 58 6.73171 58H85.2683C88.5893 58 91.3493 55.6019 91.899 52.4454L90.1263 51.3077L59.7888 31.6658ZM46 35.2573L90.1263 6.69231L91.899 5.55461C91.3493 2.39808 88.5893 0 85.2683 0H6.73171C3.41073 0 0.650732 2.40923 0.100976 5.55461L1.86244 6.69231L46 35.2573Z" fill="#E4E0E5"/>
</svg>
