<svg width="22" height="22" viewBox="0 0 22 22" fill="none" xmlns="http://www.w3.org/2000/svg">
<path d="M15.625 13.75H14.6375L14.2875 13.4125C15.5548 11.9425 16.2514 10.0659 16.25 8.125C16.25 6.51803 15.7735 4.94714 14.8807 3.611C13.9879 2.27485 12.719 1.23344 11.2343 0.618482C9.74966 0.00352044 8.11599 -0.157382 6.53989 0.156123C4.9638 0.469628 3.51606 1.24346 2.37976 2.37976C1.24346 3.51606 0.469628 4.9638 0.156123 6.53989C-0.157382 8.11599 0.00352044 9.74966 0.618482 11.2343C1.23344 12.719 2.27485 13.9879 3.611 14.8807C4.94714 15.7735 6.51803 16.25 8.125 16.25C10.1375 16.25 11.9875 15.5125 13.4125 14.2875L13.75 14.6375V15.625L20 21.8625L21.8625 20L15.625 13.75ZM8.125 13.75C5.0125 13.75 2.5 11.2375 2.5 8.125C2.5 5.0125 5.0125 2.5 8.125 2.5C11.2375 2.5 13.75 5.0125 13.75 8.125C13.75 11.2375 11.2375 13.75 8.125 13.75Z" fill="#572C53"/>
</svg>
