<svg width="1038" height="523" viewBox="0 0 1038 523" fill="none" xmlns="http://www.w3.org/2000/svg">
<rect x="887" y="52" width="5" height="15" fill="#40DDFF"/>
<rect x="897" y="52" width="5" height="15" fill="#40DDFF"/>
<rect x="907" y="52" width="5" height="15" fill="#40DDFF"/>
<rect x="917" y="52" width="5" height="15" fill="#40DDFF"/>
<rect x="927" y="52" width="5" height="15" fill="#40DDFF"/>
<rect x="937" y="52" width="5" height="15" fill="#40DDFF"/>
<rect x="947" y="52" width="5" height="15" fill="#40DDFF"/>
<rect x="957" y="52" width="5" height="15" fill="#40DDFF"/>
<path d="M910 37.5L887 5.00004L80.5 5L8 83L6 453L32 482.5H1013.5L1033 453V83L1013.5 37.5H910Z" stroke="#FFC700" stroke-width="10"/>
<line x1="68" y1="520.5" x2="369" y2="520.5" stroke="#814678" stroke-width="5"/>
<line x1="221" y1="508.5" x2="520" y2="508.5" stroke="#52C0FF" stroke-width="5"/>
</svg>
